<svg width="103" height="97" viewBox="0 0 103 97" fill="none" xmlns="http://www.w3.org/2000/svg">
<g clip-path="url(#clip0_99_440)">
<path d="M87.1322 60.0892L92.2913 65.2452L96.1152 88.2145L94.0311 90.2992H69.9895L67.9613 88.2703V85.7388L66.24 84.0171L60.3506 78.1165L58.6293 76.3901H42.9614L41.2355 78.1119L35.2855 84.0636L33.5596 85.79V88.033L31.2941 90.2992H8.75046L6.71753 88.2656L10.5647 65.2266L15.682 60.1078H87.1322V60.0892ZM89.5699 54.2212H13.2769L5.07071 62.3973L0.418701 90.2852L6.31746 96.1858H33.7364L39.4491 90.4714V88.2284L45.399 82.2627H56.187L62.0765 88.1586V90.6901L67.5472 96.1718H96.4688L102.419 90.2201L97.7667 62.4066L89.5699 54.2026V54.2212Z" fill="url(#paint0_linear_99_440)"/>
<path d="M48.0367 6.66775L33.2061 6.67705L33.1316 6.97022L32.271 10.3439L30.7126 16.4678L24.9534 15.2905L26.2141 10.3439L27.0654 7.00745L27.1445 6.70032L16.7751 6.67705L18.394 0.650879H46.5015L48.0367 6.66775Z" fill="white"/>
<path d="M66.5378 14.8394H78.447L80.0287 21.0935H73.9625L73.9113 20.8888H67.8683L66.5378 14.8394Z" fill="white"/>
<path d="M85.9693 44.5419H61.8114L60.4995 39.3906H60.4902L57.7595 28.6365L57.7362 28.5481L55.0055 17.7941H55.0148L52.1119 6.37459L50.6838 0.753264L50.5396 0.185547H74.7765L76.3489 6.23499H58.113L58.1456 6.36994L60.774 16.7238H60.7647L63.7931 28.6365H63.7885L66.1238 37.8084H66.1331L66.3052 38.4925H78.3772L77.8422 36.3705H77.8376V36.3612L76.5489 31.2797L76.5443 31.2611L75.265 26.2075L75.2557 26.1702L73.9717 21.098H80.038L81.3173 26.1702H81.3219L82.6059 31.2611H82.6105L83.8945 36.3612L83.8991 36.3705L85.9693 44.5419Z" fill="white"/>
<path d="M52.819 10.0462L52.6702 9.47852H52.6748L52.819 10.0462Z" fill="#231F20"/>
<path d="M56.6662 40.8143L56.1219 38.6552L50.3162 15.6905L48.9625 10.3438L48.7485 9.49219H36.5974L36.3834 10.3438L35.0297 15.6905L29.2193 38.6552L28.6751 40.8143L27.6516 44.8582H33.8341L34.8576 40.8143L35.3739 38.7622L36.0717 36.0167H49.2788L49.972 38.7622L50.4883 40.8143L51.5118 44.8582H57.685L56.6662 40.8143ZM37.5185 29.5019L41.0494 15.5416H44.3058L47.8367 29.5019H37.5185Z" fill="white"/>
<path d="M27.4376 64.9287H22.0273V82.1464H27.4376V64.9287Z" fill="url(#paint1_linear_99_440)"/>
<path d="M33.3365 70.8335H16.124V76.2454H33.3365V70.8335Z" fill="url(#paint2_linear_99_440)"/>
<path d="M72.9203 73.6446C75.3945 73.6446 77.4002 71.6383 77.4002 69.1634C77.4002 66.6884 75.3945 64.6821 72.9203 64.6821C70.4461 64.6821 68.4404 66.6884 68.4404 69.1634C68.4404 71.6383 70.4461 73.6446 72.9203 73.6446Z" fill="url(#paint3_linear_99_440)"/>
<path d="M81.4103 83.2818C83.8845 83.2818 85.8902 81.2755 85.8902 78.8006C85.8902 76.3257 83.8845 74.3193 81.4103 74.3193C78.9361 74.3193 76.9304 76.3257 76.9304 78.8006C76.9304 81.2755 78.9361 83.2818 81.4103 83.2818Z" fill="url(#paint4_linear_99_440)"/>
<path d="M30.7126 16.4678L28.5029 25.1232L27.3027 29.8371L25.7256 36.0168H19.6687L21.2411 29.8464L24.9534 15.2905L30.7126 16.4678Z" fill="white"/>
<path d="M28.5168 25.128L25.1069 38.4973L24.516 40.8147L23.5298 44.677H17.4729L18.4591 40.8147L19.0453 38.5066L19.678 36.017L22.7576 23.9507L28.5028 25.1233L28.5168 25.128Z" fill="white"/>
</g>
<defs>
<linearGradient id="paint0_linear_99_440" x1="0.418702" y1="59.4743" x2="99.4574" y2="76.09" gradientUnits="userSpaceOnUse">
<stop stop-color="#43C4D8"/>
<stop offset="1" stop-color="#4E98C3"/>
</linearGradient>
<linearGradient id="paint1_linear_99_440" x1="22.0273" y1="67.0907" x2="27.4259" y2="67.2078" gradientUnits="userSpaceOnUse">
<stop stop-color="#43C4D8"/>
<stop offset="1" stop-color="#4E98C3"/>
</linearGradient>
<linearGradient id="paint2_linear_99_440" x1="16.124" y1="71.5131" x2="32.5165" y2="75.1132" gradientUnits="userSpaceOnUse">
<stop stop-color="#43C4D8"/>
<stop offset="1" stop-color="#4E98C3"/>
</linearGradient>
<linearGradient id="paint3_linear_99_440" x1="68.4404" y1="65.8075" x2="77.3425" y2="66.4221" gradientUnits="userSpaceOnUse">
<stop stop-color="#43C4D8"/>
<stop offset="1" stop-color="#4E98C3"/>
</linearGradient>
<linearGradient id="paint4_linear_99_440" x1="76.9304" y1="75.4447" x2="85.8325" y2="76.0593" gradientUnits="userSpaceOnUse">
<stop stop-color="#43C4D8"/>
<stop offset="1" stop-color="#4E98C3"/>
</linearGradient>
<clipPath id="clip0_99_440">
<rect width="102" height="96" fill="white" transform="translate(0.414062 0.185547)"/>
</clipPath>
</defs>
</svg>
